<svg xmlns="http://www.w3.org/2000/svg" viewBox="2 -2 1278 171.9">
    <defs>
        <style>.cls-1{fill:#fff;stroke:#fff;stroke-miterlimit:10;}</style>
    </defs>
    <title>Teared Paper</title>
    <g id="teared_paper_wrapper" data-name="teared_paper_wrapper">
        <g id="teared_paper" data-name="teared_paper">
            <path class="cls-1" d="M.5,49.49,28.21,32.87H50.37l20.32-3.7L79,24.56,98.39,30.1l21.24-5.54H127l18.47-12L152,7.93h9.23l5.54,4.62,12-4.62L188,.55H200.9l6.47,7.38L213.83.55l24,4.61,11.09,5.54L267.4,19l18.47,6H309l17.54-4.16,10.16-.92L351.44,25h24.93l11.09-5.08h7.38L405,25h27.71l12.93,4.15h28.63v4.62l12,2.77,6.47,3.7,11.08.92,12.93,3.69,5.54,4.62h26.78l11.08-7.39,14.78,2.77,7.39,4.62h41.56L630.34,55,640.5,44.87l10.16-2.77,10.16-2.77,6.46-4.61,12.93.92,12,2.77,6.46,1.85,12-3.7,19.39-8.77h53.57l12-6.93,13.85-4.61,8.32-.93,6.46-2.77,6.47,15.24,10.15,6.93L859.37,43l8.32,2.77,4.61,2.77,8.32-.93,12,7.39,5.54,4.62h7.39l13.85-7.39,20.32,7.39L959.11,55h9.24l14.78-10.16,7.38-7.38,12.93,7.38,10.16,3.7,8.31-8.31h10.16l12-5.54L1057,36.56l12,.93h11.09l5.54.92,4.61,2.77h9.24l7.39-4.62,14.77,4.62,12,.92,17.55-3.69,11.08-3.69h17.55l13.85-4.62h7.39L1214,22.71l14.77,3.69,13.86,7.39,12.92,1.85,11.09,5.54,13.85-.92V171.4H.5Z"/>
        </g>
    </g>
</svg>